<svg xmlns="http://www.w3.org/2000/svg" width="113.4" height="104.1" viewBox="0 0 113.4 104.1">
    <style>
        .st0{fill:#fff}.st1{fill:url(#in_sf_base_1_)}.st2{fill:url(#in_sf_base_2_)}.st3{fill:url(#SVGID_1_)}.st4{fill:url(#out_sf_base_1_)}.st5{opacity:.74;fill:url(#SVGID_2_);enable-background:new}.st6{fill:url(#in_up_right_1_)}.st7{fill:url(#in_up_right_2_)}.st8{fill:url(#SVGID_3_)}.st9{opacity:.9;fill:url(#SVGID_4_);enable-background:new}.st10{fill:#231f20}.st11{fill:#6e6f72}.st12{fill:#595a5c}.st13{opacity:.2;fill:url(#SVGID_5_)}.st13,.st14,.st15{enable-background:new}.st14{fill-opacity:.42;opacity:.2;fill:url(#SVGID_6_)}.st15{opacity:.5;fill:#bdbec0}.st16{fill:none}.st17{fill:url(#SVGID_7_)}.st18{opacity:.9;fill:url(#SVGID_8_);enable-background:new}.st19{fill:url(#wing_low_sf_1_)}.st20{fill:url(#SVGID_9_)}.st21{fill:url(#SVGID_10_)}.st22{fill:url(#SVGID_11_)}.st23{fill:url(#SVGID_12_)}.st24{fill:#424143}.st25{fill:#bdbec0}.st26{fill:url(#SVGID_13_);fill-opacity:.8}.st27{fill:url(#SVGID_14_)}.st28{fill:#d2d3d4}.st29{fill:url(#SVGID_15_)}.st30{fill:url(#SVGID_16_)}.st31{fill:url(#SVGID_17_)}.st32{fill:url(#SVGID_18_)}.st33{fill:#0066b3}.st34{fill:url(#SVGID_19_)}.st35{fill:url(#SVGID_20_)}
    </style>
    <path class="st0" d="M56.7 76.5c-15.6 0-28.5-3.6-36.1-10-7.5-6.3-11.3-15.6-11.8-28.4C8.4 26.3 13.3 15 21.5 8.7c7.8-6 18.9-8.7 35-8.7 16.6 0 27.8 2.8 35.3 8.8 8 6.4 12.9 17.9 12.6 29.4-.4 12.8-4.2 21.8-12 28.2-7.8 6.5-20.5 10.1-35.7 10.1zm0-71c-4.4 0-8.6.4-11.8 1-5.5 1.1-8.3 2.3-12.3 4.9-10.1 6.8-12.2 18.1-12.2 26.4 0 12.6 4.2 21.8 12.5 27.3C38 68.5 45.4 70 56.7 70c10.5 0 17-1.4 23.1-4.9 6-3.4 13.1-11 13.1-27.4 0-12-4.1-20.9-12.2-26.3-3.8-2.5-6.2-3.7-12.3-4.9-3.2-.7-7.3-1-11.7-1z"/>
    <path class="st0" d="M56.8 55.5c-.7 0-.9-.5-1.6-2-.3-.7-.8-1.7-1.5-3.1-2.8-5.6-7.7-10.2-13.5-12.5-1.6-.7-3.9-1.3-6.1-2-4.5-1.3-9.5-2.8-13.3-5.1l-.1-2.4v-6.1l4.1-2.7c.3.2 2.2 1.4 5 2.7 1.3.6 2.6 1.2 4.1 1.8h.1c4.8 2.1 10.3 4.5 12.5 6.1 3.7 2.7 7.2 6.6 9.5 10.7.3.6.6.8.8.8.1 0 .4-.2.8-.9 2.3-4.5 6.5-8.7 9.5-10.8 3-2 8-4 12.4-5.8 2-.8 4-1.6 5.4-2.3 2.3-1.1 3.8-2.1 3.9-2.2l3.9 2.4v6.2l-.1 2.3c-2.6 1.5-4.2 2.4-10.5 4.1l-.3.1c-11.6 2.9-19 8.2-22 15.6-.4.9-.6 1.7-.9 2.3v.1c-.8 1.8-1.1 2.7-2.1 2.7z"/>
    <g>
        <linearGradient id="in_sf_base_1_" gradientUnits="userSpaceOnUse" x1="47.275" y1="102.024" x2="66.41" y2="30.608" gradientTransform="matrix(1 0 0 -1 0 104)">
            <stop offset=".212" stop-color="#231f20"/>
            <stop offset=".273" stop-color="#292526"/>
            <stop offset=".381" stop-color="#373436"/>
            <stop offset=".523" stop-color="#4d4c4e"/>
            <stop offset=".594" stop-color="#595a5c"/>
            <stop offset=".802" stop-color="#a09d9e"/>
            <stop offset="1" stop-color="#fff"/>
        </linearGradient>
        <path id="in_sf_base_8_" class="st1" d="M45.8 69.5c-10-1.4-25.5-6.7-25.5-32.1 0-14.5 6.5-31.9 36.4-31.9C83.7 5.5 93 20 93 37.4c0 23.9-13.9 30.2-25.3 32.1-5.6.8-15.4.9-21.9 0zm53.7-32c0-19.4-9.1-35.4-42.7-35.4-35.3 0-42.7 19.4-42.7 35.5 0 26.8 18 33.4 31.1 34.9 6.6.8 16.2.7 22.4 0 13-1.6 31.9-8 31.9-35z"/>
        <linearGradient id="in_sf_base_2_" gradientUnits="userSpaceOnUse" x1="47.275" y1="102.024" x2="66.41" y2="30.608" gradientTransform="matrix(1 0 0 -1 0 104)">
            <stop offset="0" stop-color="#231f20"/>
            <stop offset=".564" stop-color="#424143"/>
            <stop offset=".614" stop-color="#4d4d4f"/>
            <stop offset=".669" stop-color="#565658"/>
            <stop offset=".709" stop-color="#595a5c"/>
            <stop offset=".836" stop-color="#fff"/>
            <stop offset=".891" stop-color="#fff"/>
            <stop offset="1" stop-color="#969ea9"/>
        </linearGradient>
        <path id="in_sf_base_7_" class="st2" d="M45.8 69.5c-10-1.4-25.5-6.7-25.5-32.1 0-14.5 6.5-31.9 36.4-31.9C83.7 5.5 93 20 93 37.4c0 23.9-13.9 30.2-25.3 32.1-5.6.8-15.4.9-21.9 0zm53.7-32c0-19.4-9.1-35.4-42.7-35.4-35.3 0-42.7 19.4-42.7 35.5 0 26.8 18 33.4 31.1 34.9 6.6.8 16.2.7 22.4 0 13-1.6 31.9-8 31.9-35z"/>
        <linearGradient id="SVGID_1_" gradientUnits="userSpaceOnUse" x1="384.159" y1="104.1" x2="402.755" y2="34.698" gradientTransform="rotate(180 215.49 52)">
            <stop offset="0" stop-color="#333232" stop-opacity="0"/>
            <stop offset=".606" stop-color="#333232"/>
            <stop offset=".633" stop-color="#353334"/>
            <stop offset=".655" stop-color="#393839"/>
            <stop offset=".674" stop-color="#414041"/>
            <stop offset=".693" stop-color="#4c4c4d"/>
            <stop offset=".709" stop-color="#595a5c"/>
            <stop offset=".867" stop-color="#e7e7e7"/>
            <stop offset="1" stop-color="#d2d3d4" stop-opacity="0"/>
        </linearGradient>
        <path class="st3" d="M56.9 2.6V5c-27.3.1-36.6 14.6-36.6 32.9 0 16.7 7.2 25.2 15.4 29 9.2 4.3 19.8 3.5 14.8 5.4-1.2.5-2.2 1.2-6.7.7-13-1.5-29.6-7.9-29.6-34.9 0-19.4 9.2-35.4 42.7-35.5z"/>
        <linearGradient id="out_sf_base_1_" gradientUnits="userSpaceOnUse" x1="70.423" y1="27.655" x2="42.551" y2="104.233" gradientTransform="matrix(1 0 0 -1 0 104)">
            <stop offset=".036" stop-color="#3f3f40"/>
            <stop offset=".194" stop-color="#424143"/>
            <stop offset=".343" stop-color="#706b6c"/>
            <stop offset=".525" stop-color="#b0acad"/>
            <stop offset=".658" stop-color="#e2e0e0"/>
            <stop offset=".727" stop-color="#fff"/>
            <stop offset="1" stop-color="#737a82"/>
        </linearGradient>
        <path id="out_sf_base_4_" class="st4" d="M104.1 38.3c0 10.3-3.5 21-11.8 27.9-8.7 7.2-22.2 10.2-35.8 10.2-14.5 0-27-2.7-36.5-10.7-7.4-6.3-11-17.5-11-27.5 0-10.9 3.5-22.4 12.6-29.4C30 2.4 44.9.1 56.6.1 70 .1 83 2.3 91.7 9.2c8.4 6.8 12.4 18.4 12.4 29.1zm-4.8-.4c0-18-10.5-35.4-42.7-35.4-35.2 0-42.7 19.4-42.7 35.5 0 27.4 18.7 33.6 31.9 35 7.1.8 14.2.8 22 0 7.7-.9 31.5-6.1 31.5-35.1z"/>
        <linearGradient id="SVGID_2_" gradientUnits="userSpaceOnUse" x1="22.851" y1="69.391" x2="33.242" y2="105.631" gradientTransform="matrix(1 0 0 -1 0 104)">
            <stop offset="0" stop-color="#fff" stop-opacity="0"/>
            <stop offset=".461" stop-color="#fff"/>
            <stop offset=".592" stop-color="#dedddd" stop-opacity=".756"/>
            <stop offset="1" stop-color="#939598" stop-opacity="0"/>
        </linearGradient>
        <path class="st5" d="M14.9 29c1.6-4.7 3.7-12.4 9.7-17.8 6.8-6 18.7-8.1 22.2-8.6-1.4-.8-2.1-1-4.1-1.6-9.8 1.4-18.1 4.2-24 10.4s-8.4 14.1-9.2 19.3c2-.7 2.8-.9 5.4-1.7z"/>
        <linearGradient id="in_up_right_1_" gradientUnits="userSpaceOnUse" x1="28.1" y1="94.55" x2="85.3" y2="94.55" gradientTransform="matrix(1 0 0 -1 0 104)">
            <stop offset="0" stop-color="#231f20"/>
            <stop offset=".007" stop-color="#262324" stop-opacity=".993"/>
            <stop offset=".066" stop-color="#3d3a3b" stop-opacity=".933"/>
            <stop offset=".128" stop-color="#514f50" stop-opacity=".872"/>
            <stop offset=".192" stop-color="#626162" stop-opacity=".808"/>
            <stop offset=".259" stop-color="#6f6f71" stop-opacity=".741"/>
            <stop offset=".33" stop-color="#797a7c" stop-opacity=".67"/>
            <stop offset=".407" stop-color="#7f8083" stop-opacity=".593"/>
            <stop offset=".503" stop-color="#818285" stop-opacity=".497"/>
            <stop offset="1" stop-color="#231f20"/>
        </linearGradient>
        <path id="in_up_right_8_" class="st6" d="M56.3 4.1c11.4 0 22.2 1.9 29 10.7-10.4-12.9-45.6-13.2-57.2 0C34.9 7 44.9 4.1 56.3 4.1z"/>
        <linearGradient id="in_up_right_2_" gradientUnits="userSpaceOnUse" x1="113.604" y1="38.118" x2="167.408" y2="38.118" gradientTransform="matrix(-1 0 0 1 197.646 28.625)">
            <stop offset="0" stop-color="#231f20"/>
            <stop offset=".141" stop-color="#363335"/>
            <stop offset=".455" stop-color="#666669"/>
            <stop offset=".503" stop-color="#6e6f72"/>
            <stop offset="1" stop-color="#231f20"/>
        </linearGradient>
        <path id="in_up_right_7_" class="st7" d="M56.7 71.2c-12.4 0-19.7-1.6-26-7.3-.8-.7-.7-.7.2 0 1.8 1.3 4 2.7 6.4 3.6 5.7 2.1 12.9 2.7 19.5 2.7s12.3-.7 17.4-2.3c3.7-1.2 6.5-3.2 9.1-5.1.9-.7 1-.7.2.1-6.9 5.9-14.9 8.3-26.8 8.3z"/>
        <linearGradient id="SVGID_3_" gradientUnits="userSpaceOnUse" x1="300.389" y1="48.421" x2="297.662" y2="40.928" gradientTransform="rotate(180 196.823 52)">
            <stop offset=".236" stop-color="#231f20" stop-opacity="0"/>
            <stop offset=".442" stop-color="#231f20"/>
            <stop offset=".691" stop-color="#231f20" stop-opacity=".739"/>
            <stop offset="1" stop-color="#231f20" stop-opacity="0"/>
        </linearGradient>
        <path class="st8" d="M100.7 54.8c.6-1.3.6-1.2.8-2.1.1-.4-.1.2-.3.7-.3.6-.2.6-.7 1.2-.5.7-.6.8-1.6 1.3-.7.5-1.6.8-3.1 1.6-.4.2-.6.4-1.3 1.3-.6.7-1.1 1.5-1.4 1.9-.9 1.1-3.5 3.1-4.8 4.3-1.2 1-.8 1.1.9.5 1.5-.5 3.8-1.5 5.1-2 .8-.3 1.5-.9 1.8-1.3 1.5-1.8 3.4-4.9 4.6-7.4z"/>
        <linearGradient id="SVGID_4_" gradientUnits="userSpaceOnUse" x1="48.4" y1="106.438" x2="25.206" y2="64.595" gradientTransform="matrix(1 0 0 -1 -11.166 104)">
            <stop offset="0" stop-color="#fff" stop-opacity="0"/>
            <stop offset=".37" stop-color="#fff"/>
            <stop offset="1" stop-color="#939598" stop-opacity="0"/>
        </linearGradient>
        <path class="st9" d="M14.1 37.9c0-8.7 3.1-20 10.5-26.5 6.8-6 18.4-8.3 21.9-8.7-1.4-.8-2.1-1-4.1-1.6-9.8 1.4-18.1 4.3-24.1 10.5C12 18.3 9 29.2 8.8 36.5c1.8.5 3.1.9 5.3 1.4z"/>
        <path id="in_line_8_" class="st10" d="M56.7 5.5c4.4 0 8.5.4 11.7 1 6.1 1.3 8.5 2.4 12.3 4.9 8.1 5.4 12.2 14.2 12.2 26.3 0 16.4-7.1 23.9-13.1 27.4-6.1 3.5-12.5 4.9-23.1 4.9-11.3 0-18.7-1.6-23.8-5-8.3-5.5-12.5-14.7-12.5-27.3 0-8.3 2.1-19.5 12.2-26.3 3.9-2.6 6.8-3.8 12.3-4.9 3.2-.6 7.4-1 11.8-1zm0-.1c-4.2 0-8.5.3-11.9 1-5.4 1.1-8.4 2.3-12.3 4.9-9.6 6.4-12.3 17-12.3 26.4 0 12.9 4.3 21.9 12.6 27.4 6 3.9 14.5 4.9 23.9 4.9 9.7 0 16.6-1.1 23.1-4.9C87.4 60.8 93 52.3 93 37.7c0-11.1-3.6-20.6-12.2-26.4-3.9-2.6-6.3-3.7-12.3-4.9-3.4-.7-7.6-1-11.8-1z"/>
        <path id="in_line_7_" class="st11" d="M56.7 5.4c4.2 0 8.5.3 11.8 1 6 1.2 8.5 2.3 12.3 4.9C89.4 17.1 93 26.6 93 37.7c0 14.6-5.6 23.1-13.1 27.5-6.5 3.8-13.4 4.9-23.1 4.9-9.4 0-18-1-23.9-4.9-8.2-5.4-12.6-14.4-12.6-27.4 0-9.4 2.7-20 12.3-26.4 3.9-2.7 6.9-3.8 12.3-4.9 3.3-.8 7.5-1.1 11.8-1.1zm0-.2c-4.4 0-8.6.4-11.9 1-5.5 1.1-8.4 2.3-12.4 5C22.2 18 20 29.4 20 37.8c0 12.7 4.3 22 12.7 27.5 5.2 3.4 12.6 5 24 5 10.6 0 17.1-1.4 23.2-4.9 6-3.5 13.2-11.1 13.2-27.7 0-12.2-4.1-21.1-12.3-26.5-3.8-2.6-6.3-3.7-12.4-5-3.1-.7-7.3-1-11.7-1z"/>
        <path id="outline_8_" class="st10" d="M56.5.1c13.9 0 26.7 2 35.2 8.8s12.9 18.8 12.5 29.3c-.4 11.9-3.6 21.2-11.9 28.1-8.7 7.2-22.1 10.1-35.7 10.1s-27.4-2.7-36.1-10C12.7 59.8 9.3 50 8.9 38.1c-.4-11.6 4.2-22.8 12.7-29.3C30.9 1.7 44.1.1 56.5.1zm0-.1c-16.1 0-27.2 2.8-35 8.7C13.2 15 8.4 26.3 8.8 38.1c.4 12.8 4.3 22.1 11.8 28.4 7.7 6.5 20.5 10 36.2 10 15.1 0 27.8-3.6 35.7-10.1C100.2 60 104 51 104.4 38.2c.3-11.5-4.6-23-12.6-29.4C84.3 2.8 73.1 0 56.5 0z"/>
        <path id="outline_7_" class="st12" d="M56.5.3C73 .3 84.1 3.1 91.6 9c7.9 6.3 12.8 17.8 12.5 29.2-.4 12.7-4.1 21.6-11.8 27.9-7.8 6.5-20.4 10.1-35.5 10.1-15.6 0-28.3-3.5-36-9.9C13.4 60 9.6 50.8 9.1 38.1 8.7 26.4 13.5 15.2 21.7 9 29.4 3.1 40.5.3 56.5.3zm0-.2c-12.4 0-25.6 1.6-35 8.7-8.4 6.5-13 17.7-12.6 29.3.4 11.9 3.8 21.7 11.7 28.3 8.7 7.3 22.5 10 36.1 10 13.5 0 26.9-2.9 35.7-10.1 8.3-6.9 11.5-16.2 11.9-28.1.3-10.5-4-22.5-12.5-29.3C83.2 2.1 70.4.1 56.5.1z"/>
        <linearGradient id="SVGID_5_" gradientUnits="userSpaceOnUse" x1="81.2" y1="93.85" x2="94.885" y2="93.85" gradientTransform="matrix(1 0 0 -1 0 104)">
            <stop offset="0" stop-color="#231f20"/>
            <stop offset=".09" stop-color="#231f20" stop-opacity=".91"/>
            <stop offset="1" stop-color="#231f20" stop-opacity="0"/>
        </linearGradient>
        <path class="st13" d="M81.2 6.9c2 .3 9.3 1.8 11.7 3.3 2.3 1.4 1.9 1.5 1.9 1.5l-4.4 1.7c.1 0-2.9-3.4-9.2-6.5z"/>
        <linearGradient id="SVGID_6_" gradientUnits="userSpaceOnUse" x1="254.409" y1="97.494" x2="254.409" y2="88.635" gradientTransform="rotate(180 139.323 52)">
            <stop offset="0" stop-color="#231f20"/>
            <stop offset="1" stop-color="#231f20" stop-opacity="0"/>
        </linearGradient>
        <path class="st14" d="M31.7 6.8c-4.3 1-10.1 2.5-12.4 4-1.1.7-4 4.6-4 4.6l4.2-3.5c2.1-.5 2.2-.6 3.7-1 1.7-.4 2.7-.6 4.7-1.8 1.8-1.4 8.1-3.3 3.8-2.3z"/>
        <path class="st0" d="M56.8 73.8c-4.2 0-8.6-.3-13.7-1-10.9-1.4-29.3-7.9-29.3-34.9 0-15.9 7.7-27.8 21-32.7C40.6 3.1 48 2 56.8 2c15.8 0 27.1 3.9 34.5 11.8 5.6 6 8.3 13.8 8.3 24 0 25.6-16.8 33.3-31 35.2-4.2.5-7.9.8-11.8.8zm0-71.1c-8.7 0-16.1 1-21.8 3.1-13.1 4.7-20.6 16.4-20.6 32C14.4 63 30 70.4 43.1 72.1c9.7 1.3 16.6 1.3 25.4.2 13.9-1.9 30.4-9.4 30.4-34.5 0-10-2.7-17.7-8.1-23.5-7.2-7.8-18.4-11.6-34-11.6z"/>
        <path class="st15" d="M56.8 73.9c-4.3 0-8.6-.3-13.8-1-8-1.1-14.6-3.9-19.5-8.4-6.6-6.1-9.9-15-9.9-26.7 0-16 7.7-27.9 21.1-32.8C40.5 3 48 1.9 56.8 1.9c15.9 0 27.2 3.9 34.6 11.8 5.6 6 8.3 13.9 8.3 24 0 25.7-16.9 33.4-31.1 35.3-4.2.6-7.9.9-11.8.9zm0-71.7c-8.8 0-16.2 1.1-22 3.1-13.3 4.8-21 16.7-21 32.6 0 11.6 3.3 20.5 9.9 26.5 4.9 4.5 11.4 7.3 19.4 8.3 5.1.7 9.5 1 13.7 1 3.9 0 7.6-.3 11.8-.8 14.1-1.9 30.9-9.5 30.9-35 0-10.1-2.7-17.9-8.3-23.9C83.8 6 72.6 2.2 56.8 2.2z"/>
        <path class="st16" d="M56.8 2.7c-8.7 0-16.1 1-21.8 3.1-13.1 4.7-20.6 16.4-20.6 32C14.4 63 30 70.4 43.1 72.1c5.1.7 9.4 1 13.7 1 3.8 0 7.6-.3 11.7-.8 13.9-1.9 30.4-9.4 30.4-34.5 0-10-2.7-17.7-8.1-23.5-7.2-7.8-18.4-11.6-34-11.6z"/>
        <linearGradient id="SVGID_7_" gradientUnits="userSpaceOnUse" x1="327.438" y1="45.076" x2="323.575" y2="34.461" gradientTransform="matrix(1 0 0 -1 -299.025 104)">
            <stop offset=".048" stop-color="#231f20" stop-opacity="0"/>
            <stop offset=".09" stop-color="#2b2829" stop-opacity=".194"/>
            <stop offset=".202" stop-color="#3c3a3c" stop-opacity=".726"/>
            <stop offset=".261" stop-color="#424143"/>
            <stop offset=".317" stop-color="#403e40" stop-opacity=".969"/>
            <stop offset=".391" stop-color="#393739" stop-opacity=".929"/>
            <stop offset=".475" stop-color="#2e2b2c" stop-opacity=".883"/>
            <stop offset=".533" stop-color="#231f20" stop-opacity=".852"/>
            <stop offset=".571" stop-color="#252122" stop-opacity=".831"/>
            <stop offset=".609" stop-color="#2b2829" stop-opacity=".81"/>
            <stop offset=".647" stop-color="#343233" stop-opacity=".79"/>
            <stop offset=".685" stop-color="#403f40" stop-opacity=".769"/>
            <stop offset=".723" stop-color="#515153" stop-opacity=".748"/>
            <stop offset=".739" stop-color="#595a5c" stop-opacity=".739"/>
            <stop offset=".74" stop-color="#59595b" stop-opacity=".738"/>
            <stop offset=".756" stop-color="#4a494b" stop-opacity=".693"/>
            <stop offset=".773" stop-color="#3e3d3e" stop-opacity=".644"/>
            <stop offset=".793" stop-color="#353233" stop-opacity=".586"/>
            <stop offset=".817" stop-color="#2d2a2b" stop-opacity=".52"/>
            <stop offset=".846" stop-color="#272425" stop-opacity=".437"/>
            <stop offset=".887" stop-color="#242021" stop-opacity=".321"/>
            <stop offset="1" stop-color="#231f20" stop-opacity="0"/>
        </linearGradient>
        <path class="st17" d="M12.3 53.5c.3.6.6 1.5 1.7 2 .9.4 1.6.7 2.4 1 1.4.5 2.5 2.4 3.4 3.6.9 1.2 3.7 3.8 5.1 5 2.1 1.7 6 4.1 9 5.3.2.1 8.3 3.5 7.4 4.3-.3.2-7.7-1.9-8.1-2-6.4-1.9-13.2-5.8-17.7-12.3-.6-.9-2.9-5-3.4-6.6-.3-1.1-.2-1.1.2-.3z"/>
        <linearGradient id="SVGID_8_" gradientUnits="userSpaceOnUse" x1="157.087" y1="72.042" x2="166.671" y2="105.466" gradientTransform="rotate(180 123.323 52)">
            <stop offset="0" stop-color="#fff" stop-opacity="0"/>
            <stop offset=".101" stop-color="#d8d7d7" stop-opacity=".22"/>
            <stop offset=".319" stop-color="#949395" stop-opacity=".692"/>
            <stop offset=".461" stop-color="#6e6f72"/>
            <stop offset=".473" stop-color="#6e6f72"/>
            <stop offset=".649" stop-color="#727376" stop-opacity=".665"/>
            <stop offset=".833" stop-color="#7f8083" stop-opacity=".317"/>
            <stop offset="1" stop-color="#939598" stop-opacity="0"/>
        </linearGradient>
        <path class="st18" d="M98.4 29.1c-1.6-4.7-3.7-12.4-9.7-17.8-6.8-6-18.7-8.1-22.2-8.6 1.4-.8 2.1-1 4.1-1.6 9.8 1.4 18.1 4.3 24.1 10.5 5 5.2 7.2 11.4 8.3 16.4-1.7.6-2.3.6-4.6 1.1z"/>
        <linearGradient id="wing_low_sf_1_" gradientUnits="userSpaceOnUse" x1="19.7" y1="63.45" x2="94.464" y2="63.45" gradientTransform="matrix(1 0 0 -1 0 104)">
            <stop offset="0" stop-color="#231f20"/>
            <stop offset=".018" stop-color="#2c2929"/>
            <stop offset=".073" stop-color="#434141"/>
            <stop offset=".132" stop-color="#595758"/>
            <stop offset=".192" stop-color="#6b6a6b"/>
            <stop offset=".254" stop-color="#7a7a7c"/>
            <stop offset=".321" stop-color="#848588"/>
            <stop offset=".393" stop-color="#8a8c8f"/>
            <stop offset=".483" stop-color="#8d8f92"/>
            <stop offset=".497" stop-color="#fff" stop-opacity=".768"/>
            <stop offset=".498" stop-color="#231f20" stop-opacity=".9"/>
            <stop offset=".506" stop-color="#272425" stop-opacity=".915"/>
            <stop offset=".519" stop-color="#333031" stop-opacity=".939"/>
            <stop offset=".535" stop-color="#444344" stop-opacity=".97"/>
            <stop offset=".551" stop-color="#595a5c"/>
            <stop offset=".555" stop-color="#5c5d5f"/>
            <stop offset=".564" stop-color="#616263"/>
            <stop offset=".588" stop-color="#626364"/>
            <stop offset="1" stop-color="#231f20"/>
        </linearGradient>
        <path id="wing_low_sf_4_" class="st19" d="M70.3 32s-.1 0 0 0C67.9 33.2 57 45.2 56.7 45.4c-.3.3-11.9-9.2-12.1-9.6-.2-.4-20.1-7.5-20.1-7.5l-4.8-.4s.3 1.2 1.6 3c5 3.2 14.9 5.3 20 7.3 6.2 2.5 10.5 8.1 12.8 12.1 1.5 2.7 1.8 5.1 2.9 5.1 1.1 0 1.6-2.5 2.3-4.1 3.5-8 7.7-12.8 22.7-16.6 9.2-2.3 10.6-4.3 10.6-4.3l2-4.7c-.2 0-21.5 5.1-24.3 6.3z"/>
        <linearGradient id="SVGID_9_" gradientUnits="userSpaceOnUse" x1="-49.145" y1="65.094" x2="-81.899" y2="71.461" gradientTransform="rotate(180 -14.32 52)">
            <stop offset="0" stop-color="#231f20"/>
            <stop offset=".039" stop-color="#262223"/>
            <stop offset=".492" stop-color="#414041"/>
            <stop offset=".825" stop-color="#525254"/>
            <stop offset="1" stop-color="#595a5c"/>
        </linearGradient>
        <path class="st20" d="M18.9 26.5c.8 2.1 2.1 4.4 2.1 4.4s2.3 1.2 5.3 2.2c6.6 2.2 15 3.4 17.5 4.6 8.7 4.2 10.7 8.1 12.8 11.5-.9-2.3-1.7-4.4-4.8-8.3-4.5-5.6-7.4-6.9-13.9-9.3-2.2-.8-5.3-2.1-9.1-3.5s-8.5-3.9-11.4-5.9c-.2 0 .9 2.6 1.5 4.3z"/>
        <linearGradient id="SVGID_10_" gradientUnits="userSpaceOnUse" x1="56.708" y1="72.5" x2="96.798" y2="72.5" gradientTransform="matrix(1 0 0 -1 0 104)">
            <stop offset="0" stop-color="#231f20"/>
            <stop offset=".02" stop-color="#343132"/>
            <stop offset=".056" stop-color="#4f4c4e"/>
            <stop offset=".096" stop-color="#6a696c"/>
            <stop offset=".139" stop-color="#83848a"/>
            <stop offset=".187" stop-color="#9a9da5"/>
            <stop offset=".243" stop-color="#acb2bb"/>
            <stop offset=".309" stop-color="#bac2cc"/>
            <stop offset=".399" stop-color="#c3ccd8"/>
            <stop offset=".606" stop-color="#c6d0dc"/>
            <stop offset=".824" stop-color="#fff"/>
        </linearGradient>
        <path class="st21" d="M62.3 34.5c1.8-2 3.1-3.3 6.5-5.3 6.1-3.6 15.7-5.6 22-10.5 4.2-3.3 5.4-4.9 5.4-4.9s.5 1.4.5 3.2c0 1 .1 2 0 3.1s-.4 2-.4 2c-3 2-7.1 4.3-10.9 5.7-3.8 1.4-7.4 2.7-9.7 3.5-9.8 3.7-14 9.2-17.2 14.9-1.5 2.7-1.9 3-1.9 3V42c.1 0 .2 0 .6-.8.9-1.4 2.9-4.2 5.1-6.7z"/>
        <linearGradient id="SVGID_11_" gradientUnits="userSpaceOnUse" x1="73.517" y1="74.851" x2="79.401" y2="55.606" gradientTransform="matrix(1 0 0 -1 0 104)">
            <stop offset="0" stop-color="#231f20"/>
            <stop offset=".03" stop-color="#231f20"/>
            <stop offset=".339" stop-color="#231f20"/>
            <stop offset=".446" stop-color="#3d3b3c"/>
            <stop offset=".527" stop-color="#4d4c4e"/>
            <stop offset=".57" stop-color="#535355"/>
            <stop offset=".806" stop-color="#231f20"/>
        </linearGradient>
        <path class="st22" d="M96 22.3c-2.9 2-8 4.3-11.7 5.7-3.8 1.4-6 2-8.2 2.8-6.3 2.3-10.3 4.7-14.9 10.5-3.1 3.9-3.6 6-4.4 7.7 0 1 .1 6.2.1 6.2s.3.1.6-.3c.1-.2 0-1.8 0-3.1 0-1 .1-1.3.6-2.3.4-.8.9-1.6 1.2-2.1 2.6-4.1 7.6-7.2 12.5-9.5 4.3-2 10.7-3.4 15-4.8 2.9-1 5.7-2.3 5.7-2.3s1.1-1.6 1.9-3.7c.5-1.8 1.7-4.9 1.6-4.8z"/>
        <linearGradient id="SVGID_12_" gradientUnits="userSpaceOnUse" x1="-85.379" y1="72.7" x2="-45.388" y2="72.7" gradientTransform="rotate(180 -14.32 52)">
            <stop offset="0" stop-color="#231f20"/>
            <stop offset=".009" stop-color="#2a2628"/>
            <stop offset=".045" stop-color="#414042"/>
            <stop offset=".081" stop-color="#545559"/>
            <stop offset=".116" stop-color="#64676d"/>
            <stop offset=".15" stop-color="#6f747b"/>
            <stop offset=".183" stop-color="#767c85"/>
            <stop offset=".212" stop-color="#787f88"/>
            <stop offset=".22" stop-color="#7a818a"/>
            <stop offset=".328" stop-color="#9c9ea5"/>
            <stop offset=".438" stop-color="#babbc0"/>
            <stop offset=".549" stop-color="#d4d4d7"/>
            <stop offset=".66" stop-color="#e9e9ea"/>
            <stop offset=".774" stop-color="#f8f8f8"/>
            <stop offset=".891" stop-color="#fff"/>
            <stop offset="1" stop-color="#a8aaad"/>
        </linearGradient>
        <path class="st23" d="M55.8 41.3c.4.8.8.7 1 .7v7.1s-.1-.4-1.6-3c-5.9-10.6-11.6-12.6-16.9-14.6-2.3-.8-6.5-2.5-10.3-3.9s-8.1-3.8-11.1-5.8c-.2-.1 0-.7-.1-1.8s-.1-2.4-.1-3.4c.1-1.8.4-3.1.4-3.1s2 2.8 6.5 5.7c2.8 1.8 6.1 3.5 9.4 4.9 4 1.7 8.1 3.4 11.4 5.4 3.3 2 5 3.6 6.8 5.6 2.3 2.6 3.7 4.7 4.6 6.2z"/>
        <path class="st24" d="M47.7 31.7c2.7 2.8 3.9 4.2 5.8 7.8 1.3 2.5 1.5 2.7 3.2 8.9l-.4-6.2s-2.2-3.5-3.6-5.3c-1.5-1.7-3.4-3.8-5-5.2z"/>
        <path class="st10" d="M56.8 55.5c-.7 0-1-.5-1.6-2-.3-.7-.8-1.7-1.5-3.1-2.8-5.6-7.7-10.1-13.5-12.5-1.6-.6-3.8-1.3-6.1-2-4.5-1.3-9.6-2.8-13.4-5.1l.1-.2c3.8 2.3 8.9 3.8 13.3 5.1 2.3.7 4.5 1.3 6.1 2C46 40 51 44.6 53.8 50.3c.7 1.4 1.1 2.4 1.5 3.1.7 1.6.9 1.9 1.4 1.9.8 0 1.1-.8 1.7-2.5.2-.7.5-1.5.9-2.4 1.9-4.8 5.7-8.7 11.3-11.7 4.5-2.4 8.8-3.5 10.8-4l.3-.1c6.3-1.6 7.9-2.5 10.5-4l.1.2c-2.6 1.5-4.2 2.4-10.5 4.1l-.3.1C70 37.8 62.7 43.1 59.7 50.4c-.4.9-.7 1.7-.9 2.4-.7 1.8-1 2.7-2 2.7z"/>
        <path class="st11" d="M56.9 55.3c-.7 0-.9-.5-1.6-2-.3-.8-.8-1.8-1.5-3.2C51 44.6 46 40 40.2 37.7c-1.6-.6-3.7-1.3-6-1.9-4.5-1.3-9.6-2.8-13.5-5.2l.1-.1c3.9 2.4 9 3.9 13.5 5.2 2.3.6 4.4 1.3 6 1.9 5.8 2.3 10.8 6.9 13.6 12.6.7 1.4 1.2 2.4 1.5 3.2.7 1.5.8 1.9 1.5 1.9.8 0 1.1-.9 1.7-2.5.2-.7.5-1.5.9-2.5 1.9-4.8 5.7-8.7 11.2-11.6 4.4-2.4 8.7-3.5 10.8-4l.3-.1c6.4-1.6 8.1-2.6 10.7-4.1l.1.1c-2.5 1.5-4.4 2.4-10.7 4.1l-.3.1c-11.6 3-19 8.2-22 15.6-.4 1-.7 1.8-.9 2.5-.6 1.6-.9 2.4-1.8 2.4z"/>
        <path class="st0" d="M56.7 49.2c-.1 0-.2-.1-.3-.2 0 0-1.3-3.1-4-6.9-1.7-2.4-3.5-4-5-5.4l-.1-.1c-1.5-1.3-3.2-2.7-8.5-4.7-.8-.3-2-.7-3.2-1.2-2.8-1-6.2-2.3-8-3-1-.4-1.8-.8-2.5-1.1-2.7-1.2-3.2-1.4-8-4.4-.2-.1-.2-.3-.1-.4.1-.2.3-.2.4-.1 4.8 3 5.3 3.2 7.9 4.4.7.3 1.4.6 2.5 1.1 1.7.8 5.2 2 7.9 3 1.3.5 2.4.9 3.3 1.2 5.4 2 7.2 3.4 8.7 4.8l.1.1c1.6 1.4 3.4 3.1 5.1 5.5 2 2.8 3.2 5.2 3.7 6.3.5-1.1 1.7-3.5 3.9-6.5 1.9-2.5 4-4.8 6.3-6.6 2.5-2 5.5-3.2 8.4-4.3 1.8-.7 3.2-1.2 4.6-1.7 2.5-.9 4.7-1.6 8.1-3.2 5.5-2.5 8-4.2 8-4.2.1-.1.3-.1.4.1.1.1.1.3-.1.5-.1.1-2.6 1.8-8.1 4.3-3.4 1.5-5.6 2.3-8.1 3.2-1.4.5-2.8 1-4.6 1.7-2.8 1.1-5.8 2.3-8.2 4.2-2.2 1.7-4.3 3.9-6.2 6.4-2.9 4-4 7-4.1 7 .1.1 0 .2-.2.2z"/>
        <path class="st11" d="M56.6 42.2c-.3 0-.6-.3-.9-.9-2.3-4.1-5.7-8-9.4-10.6-2.2-1.6-7.7-4-12.6-6.2-1.5-.6-2.8-1.2-4.1-1.8-3-1.3-5.3-2.9-5.3-2.9l.1-.2s2.4 1.6 5.3 2.9c1.2.6 2.6 1.2 4.1 1.8 4.9 2.1 10.4 4.6 12.6 6.2 3.7 2.7 7.2 6.6 9.5 10.7.3.6.6.8.7.8.1 0 .4-.2.8-.8 2.3-4.6 6.5-8.7 9.5-10.8 3-2 8-4.1 12.4-5.8 2-.8 4-1.6 5.4-2.3 2.4-1.1 4.3-2.4 4.3-2.4l.1.2s-1.9 1.3-4.3 2.4c-1.5.7-3.4 1.5-5.5 2.3-4.4 1.8-9.4 3.8-12.4 5.8-3 2.1-7.1 6.2-9.5 10.8-.1.5-.5.8-.8.8z"/>
        <path class="st10" d="M56.6 42c-.3 0-.6-.3-.9-.9-2.3-4.1-5.7-8-9.4-10.6-2.2-1.6-7.7-4-12.6-6.2-1.5-.6-2.8-1.2-4.1-1.8-3-1.3-5-2.7-5-2.7l.1-.2s2.1 1.4 5 2.7c1.2.6 2.6 1.2 4.1 1.8 4.9 2.1 10.4 4.6 12.6 6.2 3.7 2.7 7.2 6.6 9.5 10.7.3.6.6.8.7.8.1 0 .4-.2.8-.8 2.3-4.6 6.5-8.7 9.5-10.9 3-2 8-4.1 12.4-5.8 2.1-.8 4-1.6 5.5-2.3 2.4-1.1 3.9-2.2 3.9-2.2l.1.2s-1.6 1.1-4 2.2c-1.5.7-3.4 1.5-5.5 2.3-4.4 1.8-9.4 3.8-12.4 5.8-3 2.1-7.1 6.2-9.5 10.8-.1.6-.5.9-.8.9z"/>
        <path class="st0" d="M56.8 48l-.2-5.7h.2zM23.2 13.4C26.4 10 30.3 7.5 35 5.8c5.7-2.1 13-3.1 21.8-3.1 15.2 0 26.1 3.6 33.4 10.9l.2.2c.2-.1.4-.4.5-.4l-.2-.2C83.3 5.7 72.2 2 56.8 2c-8.8 0-16.2 1.1-22 3.1C30 6.8 25.9 9.5 22.6 13c0 0-.1 0 0 .1 0 0 .1.1.2.1.1.1.2.2.3.2 0 .1.1 0 .1 0z"/>
        <path class="st25" d="M90.3 13.9l-.2-.2C82.8 6.4 71.9 2.8 56.8 2.8c-8.7 0-16 1-21.7 3.1-4.6 1.7-8.5 4.2-11.7 7.5-.1.1-.1.1-.2.1s-.2-.1-.2-.2l-.1-.1s-.1 0-.1-.1c-.1 0-.1-.1-.1-.1v-.1c0-.1.1-.1.1-.1 3.3-3.5 7.4-6.1 12.2-7.9 5.5-1.9 13-3 21.8-3 15.4 0 26.6 3.7 34 11.2l.2.2.1.2h-.2l-.2.2c-.1.1-.2.1-.4.2zM56.8 2.6c15.2 0 26.2 3.6 33.5 11l.1.1c.1 0 .1-.1.2-.1.1-.1.1-.1.2-.1l-.1-.1C83.2 5.8 72.1 2.2 56.8 2.2c-8.8 0-16.2 1.1-22 3.1C30.1 7 26 9.6 22.7 13.1c0 0 .1 0 .1.1l.1.1.1.1c3.2-3.4 7.2-5.9 11.8-7.6 5.9-2.2 13.2-3.2 22-3.2z"/>
        <path class="st0" d="M95.8 21.7c-.5.3-3 2-7.9 4.2-3.3 1.5-5.5 2.3-8.1 3.2-1.4.5-2.8 1-4.6 1.7-2.9 1.1-5.8 2.3-8.4 4.3-2.3 1.8-4.4 4-6.3 6.6-2.2 3-3.3 5.4-3.9 6.5-.5-1.1-1.8-3.5-3.7-6.3-1.7-2.5-3.5-4.1-5.1-5.5l-.1-.1c-1.5-1.4-3.3-2.8-8.7-4.8-.8-.3-2-.7-3.2-1.2-2.8-1-6.2-2.2-7.9-3-1-.5-1.8-.8-2.5-1.1-2.6-1.1-3.2-1.4-7.8-4.3-.5-.3-.7-.1-.9.3-2 4.6-3 9.9-3 15.8 0 11.6 3.3 20.5 9.9 26.6C28.5 69.1 35 71.9 43 73c5.1.7 9.5 1 13.8 1 3.9 0 7.6-.3 11.8-.8 14.1-1.9 31-9.5 31-35.2 0-6-1-11.3-2.9-15.8-.2-.6-.6-.7-.9-.5zM68.5 72.3c-4.2.6-7.9.8-11.7.8-4.2 0-8.6-.3-13.7-1-13.1-1.7-28.7-9-28.7-34.2 0-5.8 1-11 3-15.5 4.6 2.9 5.1 3.1 7.8 4.3.6.3 1.4.6 2.4 1.1 1.7.8 5.2 2 8 3 1.2.4 2.4.9 3.2 1.2 5.3 2 7 3.3 8.5 4.7l.1.1c1.6 1.4 3.3 3 5 5.4 2.7 3.8 4 6.9 4 6.9.1.1.2.2.3.2.1 0 .3-.1.3-.2 0 0 1.2-3.1 4.1-7 1.8-2.5 3.9-4.7 6.2-6.4 2.5-1.9 5.4-3.1 8.2-4.2 1.8-.7 3.2-1.2 4.6-1.7 2.5-.9 4.7-1.7 8.1-3.2 4.8-2.2 7.2-3.7 7.9-4.2C98 26.8 99 32 99 37.9 98.9 63 82.4 70.5 68.5 72.3z"/>
        <linearGradient id="SVGID_13_" gradientUnits="userSpaceOnUse" x1="14.3" y1="56.25" x2="99.059" y2="56.25" gradientTransform="matrix(1 0 0 -1 0 104)">
            <stop offset="0" stop-color="#595a5c"/>
            <stop offset=".106" stop-color="#6c6a6c"/>
            <stop offset=".33" stop-color="#a3a0a2"/>
            <stop offset=".57" stop-color="#fff"/>
            <stop offset=".716" stop-color="#f8f8f7" stop-opacity=".66"/>
            <stop offset=".779" stop-color="#e9e7e7" stop-opacity=".513"/>
            <stop offset=".827" stop-color="#d5d2d1" stop-opacity=".403"/>
            <stop offset=".866" stop-color="#bab6b6" stop-opacity=".311"/>
            <stop offset=".901" stop-color="#9c9696" stop-opacity=".231"/>
            <stop offset=".932" stop-color="#7a7474" stop-opacity=".158"/>
            <stop offset=".96" stop-color="#575151" stop-opacity=".092"/>
            <stop offset=".986" stop-color="#373232" stop-opacity=".032"/>
            <stop offset="1" stop-color="#231f20" stop-opacity="0"/>
        </linearGradient>
        <path class="st26" d="M56.8 73.3c-4.2 0-8.6-.3-13.7-1-13.1-1.8-28.8-9.2-28.8-34.4 0-5.7 1-10.9 3-15.5l.1-.1.1.1c4.6 2.9 5.1 3.1 7.8 4.3.6.3 1.4.6 2.5 1.1 1.7.8 5.2 2 8 3 1.2.4 2.4.9 3.2 1.2 5.3 2 7.1 3.4 8.5 4.7l.1.1c1.6 1.4 3.3 3 5 5.5 2.7 3.8 4 6.9 4 6.9 0 .1.1.1.2.1s.2-.1.2-.1 1.1-3.1 4.1-7.1c1.8-2.5 4-4.7 6.2-6.5 2.5-1.9 5.4-3.1 8.2-4.2 1.8-.7 3.2-1.2 4.6-1.7 2.5-.9 4.7-1.6 8.1-3.2 4.8-2.2 7.2-3.7 7.9-4.2l.1-.1.1.1c1.9 4.4 2.9 9.5 2.9 15.5C99 63 82.5 70.6 68.5 72.4c-4.1.6-7.9.9-11.7.9zM17.4 22.5c-1.9 4.6-2.9 9.7-2.9 15.3C14.5 63 30.1 70.3 43.2 72c5.1.7 9.4 1 13.7 1 3.8 0 7.5-.3 11.7-.8 13.8-1.9 30.3-9.3 30.3-34.4 0-5.9-.9-10.9-2.8-15.3-.8.5-3.3 2-7.8 4.1-3.4 1.5-5.6 2.3-8.1 3.2-1.4.5-2.8 1-4.6 1.7-2.8 1.1-5.7 2.3-8.2 4.2-2.2 1.7-4.3 3.9-6.1 6.4-2.9 4-4 7-4 7-.1.2-.2.3-.4.3s-.3-.1-.4-.3c0 0-1.3-3.1-4-6.9-1.7-2.4-3.5-4-5-5.4l-.1-.1C45.8 35.4 44 34 38.8 32c-.8-.3-2-.7-3.2-1.2-2.8-1-6.2-2.3-8-3-1-.5-1.8-.8-2.4-1.1-2.7-1.1-3.3-1.3-7.8-4.2z"/>
        <path class="st24" d="M92.6 30.4s0-.1 0 0c0-.1 1.2-2.3 1.7-3.5s1.6-4.3 1.7-4.4h.1v.1S95 25.8 94.4 27c-.5 1.1-1.7 3.3-1.8 3.4.1 0 0 0 0 0z"/>
        <linearGradient id="SVGID_14_" gradientUnits="userSpaceOnUse" x1="16.956" y1="82.2" x2="16.956" y2="90.509" gradientTransform="matrix(1 0 0 -1 0 104)">
            <stop offset="0" stop-color="#f2f2f2"/>
            <stop offset=".939" stop-color="#f2f2f2"/>
            <stop offset="1" stop-color="#f2f2f2"/>
        </linearGradient>
        <path class="st27" d="M17.1 13.8c.1-.4.2-.3.1 0-.2 1-.3 2.9-.2 4.9 0 1.4.3 2.9.3 2.9-.2 0-.4 0-.5.3-.2-2.4-.4-5 .3-8.1z"/>
        <path class="st28" d="M96.4 14.1c-.1-.4-.2-.4 0 0 .1 1 .2 2.8.2 4.8 0 1.4-.2 2.8-.2 2.8s.3.2.4.5c.3-3.5 0-6.1-.4-8.1z"/>
        <linearGradient id="SVGID_15_" gradientUnits="userSpaceOnUse" x1="328.732" y1="88.15" x2="337.181" y2="88.15" gradientTransform="matrix(1 0 0 -1 -241.063 104)">
            <stop offset="0" stop-color="#231f20"/>
            <stop offset=".154" stop-color="#262223"/>
            <stop offset=".353" stop-color="#2d2a2b"/>
            <stop offset=".574" stop-color="#393738"/>
            <stop offset=".812" stop-color="#49494a"/>
            <stop offset="1" stop-color="#595a5c"/>
        </linearGradient>
        <path class="st29" d="M92.9 16.9l-3.8 3-1.4-2.2c.9-1.3 2.4-3.5 2.6-3.8.2-.2.6-.6 1-.7.4-.1 2-.9 3.3-1.4l1.7 1.9-3.4 3.2z"/>
        <linearGradient id="SVGID_16_" gradientUnits="userSpaceOnUse" x1="543.62" y1="88.45" x2="552.068" y2="88.45" gradientTransform="rotate(180 284.698 52)">
            <stop offset="0" stop-color="#231f20"/>
            <stop offset=".154" stop-color="#262223"/>
            <stop offset=".353" stop-color="#2d2a2b"/>
            <stop offset=".574" stop-color="#393738"/>
            <stop offset=".812" stop-color="#49494a"/>
            <stop offset="1" stop-color="#595a5c"/>
        </linearGradient>
        <path class="st30" d="M20.6 16.6l3.8 3 1.4-2.2c-.9-1.3-2.4-3.5-2.6-3.8-.2-.2-.6-.6-1-.7-.4-.1-2-.9-3.3-1.4l-1.7 1.9 3.4 3.2z"/>
        <linearGradient id="SVGID_17_" gradientUnits="userSpaceOnUse" x1="-1.925" y1="88.3" x2="6.741" y2="88.3" gradientTransform="matrix(1 0 0 -1 19.125 104)">
            <stop offset="0" stop-color="#a8aaad"/>
            <stop offset=".044" stop-color="#9e9fa2"/>
            <stop offset=".366" stop-color="#6a6a6c"/>
            <stop offset=".527" stop-color="#595a5c"/>
        </linearGradient>
        <path class="st31" d="M25.9 17.4s-.5.8-.8 1.2c-.3.4-.7 1.2-.7 1.2s-2.2-1.5-4.1-3.2c-1.7-1.5-2.4-2.4-3.1-3.2.3-.4 1.7-1.8 1.7-1.8s-.1.1.2.5c.9 1.1 4.6 4.2 6.1 5.1.4.4.7.2.7.2z"/>
        <path class="st0" d="M94.4 11.9c-.6.2-2.8 1-3.3 1.2-.2.1-.6.1-.8-.1C83 5.6 72 2 56.8 2c-8.8 0-16.2 1.1-22 3.1-4.6 1.7-8.6 4.2-11.7 7.4-.1.1-.4.2-.5.2-.3-.1-2.8-.9-3.5-1.2l-.1.1c.6.3 3 1.3 3.3 1.5.3.1.8.4.9.7.1.2 2.7 3.7 2.7 3.7s-1.8-2.7-2.4-3.5c-.2-.3-.2-.6 0-.8 3.1-3.2 7-5.6 11.5-7.3 5.7-2.2 13-3.2 21.8-3.2 15 0 25.9 3.5 33.2 10.7.2.2.2.4.1.6-.3.4-1.8 2.9-2.4 3.7.6-.8 2.6-3.7 2.6-3.8.2-.2.6-.5.9-.7.2.1 2.6-1 3.2-1.3z"/>
        <linearGradient id="SVGID_18_" gradientUnits="userSpaceOnUse" x1="212.966" y1="88.15" x2="221.552" y2="88.15" gradientTransform="rotate(180 154.604 52)">
            <stop offset="0" stop-color="#939598"/>
            <stop offset=".147" stop-color="#7e7f81"/>
            <stop offset=".392" stop-color="#636365"/>
            <stop offset=".527" stop-color="#595a5c"/>
        </linearGradient>
        <path class="st32" d="M87.7 17.7l1.5 2.3s2.2-1.5 4-3.1c1.7-1.5 1.6-1.6 3.1-3.2l-1.7-2s.1.3-.3.8c-.9 1-4.4 4-5.9 5-.5.4-.7.2-.7.2z"/>
        <path class="st24" d="M20.8 30.5c-.1-.1-1.3-2.3-1.8-3.5s-1.6-4.3-1.7-4.4v-.1h.1s1.1 3.2 1.7 4.4c.5 1.2 1.7 3.5 1.7 3.6.1-.1.1-.1 0 0z"/>
    </g>
    <g>
        <path class="st33" d="M100.8 104.1c-2.6 0-4-.2-4.3-.3-2.5-.6-3.6-3-3.5-5 0-1.9 1-4.3 3.7-5 .8-.2 2-.3 3.6-.3h7.5v-.9c0-1.4-.9-1.6-2.6-1.6h-11v-4.1h12.2c2.5 0 4.3.3 5.7 1.6 1.3 1.2 1.2 2.7 1.2 4.8v10.8h-12.5zm.1-7.2c-.7 0-1.6.1-2.1.6-.3.3-.4.7-.4 1.1 0 .5.1.8.4 1.1.5.5 1.4.6 2.1.6h6.9v-3.4h-6.9zM56 104.1l5.8-4.2h7.5v4.2H56zm-19.3 0c-2.3 0-3.7-.1-4.2-.3-2.5-.6-3.6-3-3.6-5 0-1.9 1-4.3 3.7-5 .9-.2 1.9-.3 3.4-.3h7.7v-.9c0-1.4-.9-1.6-2.6-1.6H30.5v-4.1h11.8c2.5 0 4.3.3 5.7 1.6 1.3 1.2 1.2 2.7 1.2 4.8v7.4L68 86.9h14.7c3 0 4.3.1 5.8.6 1.6.6 2.5 1.3 3.2 2.7.8 1.5.9 3.7.9 5.3 0 1.6-.1 3.8-.9 5.3-.7 1.4-1.6 2.1-3.2 2.7-1.5.5-2.9.6-5.8.6H71.5V90.3l-18.9 13.8H36.7zm.1-7.2c-.9 0-1.5.1-2 .6-.3.3-.4.7-.4 1.1 0 .5.1.8.4 1.1.4.5 1.1.6 2 .6h7v-3.4h-7zm45.5 2.9c2.3 0 2.9-.2 3.5-.6.9-.7 1.2-1.6 1.2-3.8 0-2.2-.3-3.1-1.2-3.8-.5-.4-1.2-.6-3.5-.6h-5.1v8.7h5.1v.1zm-59.5 4.3V93.8c0-.9-.2-1.4-.6-1.8-.4-.5-1.1-.7-2-.7H17v12.8h-5.6V91.3H5.7v12.8H0V86.9h21.4c5.2 0 7.1 1.5 7.1 5.4v11.8h-5.7zm28.3-13v-4.2h13.8l-5.8 4.2h-8z"/>
        <linearGradient id="SVGID_19_" gradientUnits="userSpaceOnUse" x1="56.75" y1="16.261" x2="56.75" y2=".774" gradientTransform="matrix(1 0 0 -1 0 104)">
            <stop offset="0" stop-color="#d1d3d4"/>
            <stop offset=".72" stop-color="#6d6e71"/>
            <stop offset="1" stop-color="#8a8c8e"/>
        </linearGradient>
        <path class="st34" d="M100.8 103.2c-2.6 0-3.9-.2-4.1-.2-2-.5-2.9-2.5-2.9-4.2 0-1.6.8-3.6 3-4.2.8-.2 1.8-.3 3.4-.3h8.4v-1.8c0-2.4-2.3-2.4-3.4-2.4H95.1v-2.4h11.4c2.3 0 3.9.2 5.1 1.3 1 .9 1 2 1 4.2v9.9l-11.8.1zm.1-7.2c-.9 0-2 .1-2.7.8-.4.4-.6 1-.6 1.7s.2 1.3.6 1.7c.7.7 1.8.8 2.7.8h7.7v-5h-7.7zm-42.3 7.2l3.5-2.5h6.4v2.5h-9.9zm-21.9 0c-2.4 0-3.6-.2-4-.2-2-.5-2.9-2.5-2.9-4.2 0-1.6.8-3.6 3-4.2.8-.2 1.7-.3 3.2-.3h8.5v-1.8c0-2.4-2.3-2.4-3.4-2.4h-9.8v-2.4h11c2.3 0 3.9.2 5.1 1.3 1 .9 1 2 1 4.2v9.1l19.9-14.6h14.4c2.9 0 4.2.1 5.6.6s2.1 1.1 2.7 2.3c.7 1.3.8 3.4.8 4.9s-.1 3.6-.8 4.9c-.6 1.2-1.3 1.8-2.7 2.3-1.4.4-2.7.6-5.6.6H72.4V88.6l-20.1 14.6H36.7zm.1-7.2c-.9 0-1.9.1-2.6.8-.4.4-.6 1-.6 1.7s.2 1.3.6 1.7c.7.7 1.6.8 2.6.8h7.9v-5h-7.9zm39.6 4.7h5.9c2.3 0 3.2-.2 4-.8 1.3-1 1.5-2.3 1.5-4.5s-.2-3.5-1.5-4.5c-.8-.6-1.6-.8-4-.8h-5.9v10.6zm-52.8 2.5v-9.5c0-1.1-.2-1.8-.8-2.4-.6-.6-1.4-.9-2.7-.9h-4v12.8h-3.9V90.4H4.9v12.8h-4V87.7h20.6c5.3 0 6.3 1.5 6.3 4.6v10.9h-4.2zm28.3-12.9v-2.5h10.3l-3.4 2.5h-6.9z"/>
        <linearGradient id="SVGID_20_" gradientUnits="userSpaceOnUse" x1="56.7" y1="16.261" x2="56.7" y2=".774" gradientTransform="matrix(1 0 0 -1 0 104)">
            <stop offset="0" stop-color="#e6e7e8"/>
            <stop offset=".721" stop-color="#babcbe"/>
            <stop offset="1" stop-color="#c9cacc"/>
        </linearGradient>
        <path class="st35" d="M58.6 103.2h9.8v-2.5H62l-3.4 2.5zm9.6-2.3v2.1h-9l2.9-2.1h6.1zm43.3-11.8c-1.1-1.1-2.8-1.3-5.1-1.3H95.1v2.4h10.1c1.1 0 3.4 0 3.4 2.4v1.8h-8.4c-1.5 0-2.6.1-3.4.3-2.2.5-3 2.6-3 4.2 0 1.7.9 3.7 2.9 4.2.2.1 1.5.2 4.1.2h11.7v-9.9c0-2.3 0-3.4-1-4.3zm.8 4.2v9.7h-11.5c-2.6 0-3.8-.2-4.1-.2-1.9-.5-2.8-2.4-2.8-4 0-1.5.8-3.4 2.9-4 .8-.2 1.8-.3 3.3-.3h8.6v-2c0-2.7-2.5-2.7-3.6-2.7h-9.9v-2h11.2c2.2 0 3.9.2 4.9 1.3 1 1 1 2 1 4.2zm-78.2 3.4c-.5.5-.7 1.1-.7 1.9s.2 1.4.7 1.9c.7.8 1.7.9 2.7.9h8.1v-5.5h-8.1c-1-.1-2 0-2.7.8zm10.6 4.4h-7.9c-.9 0-1.9-.1-2.6-.8-.4-.4-.6-1-.6-1.7s.2-1.3.6-1.7c.7-.7 1.6-.8 2.6-.8h7.9v5zM21.4 87.7H.9v15.5h4V90.4h7.5v12.8h3.9V90.4h4c1.2 0 2 .3 2.7.9.6.6.8 1.3.8 2.4v9.5h4.1V92.3c-.2-3-1.2-4.6-6.5-4.6zm6.1 15.3h-3.6v-9.3c0-1.2-.3-2-.9-2.6-.7-.7-1.5-1-2.8-1H16V103h-3.4V90.2H4.7V103H1.1V88h20.4c5.2 0 6.1 1.4 6.1 4.4V103h-.1zm34.7-15.3H51.9v2.5h6.9l3.4-2.5zm-10.1 2.4V88h9.5l-2.9 2.1h-6.6zm36.2-1.8c-1.4-.4-2.7-.6-5.6-.6H68.3l-19.9 14.6v-9.1c0-2.2 0-3.3-1-4.2-1.1-1.1-2.8-1.3-5.1-1.3h-11v2.4h9.8c1.1 0 3.4 0 3.4 2.4v1.8H36c-1.5 0-2.4.1-3.2.3-2.2.5-3 2.6-3 4.2 0 1.7.9 3.7 2.9 4.2.3.1 1.6.2 4 .2h15.6l20.1-14.6v14.6h10.3c2.9 0 4.2-.1 5.6-.6s2.1-1.1 2.7-2.3c.7-1.3.8-3.4.8-4.9s-.1-3.6-.8-4.9c-.6-1.1-1.3-1.7-2.7-2.2zm2.5 12c-.6 1.1-1.2 1.7-2.6 2.2-1.3.4-2.6.6-5.5.6H72.6V88.2L52.3 103H36.7c-2.4 0-3.6-.2-3.9-.2-1.9-.5-2.8-2.4-2.7-4 0-1.5.8-3.4 2.9-4 .8-.2 1.7-.3 3.2-.3h8.7v-2c0-2.7-2.5-2.7-3.6-2.7h-9.6v-2h10.8c2.2 0 3.9.2 4.9 1.3.9.9.9 1.9.9 4.1v9.5L68.4 88h14.3c2.9 0 4.1.1 5.5.6s2 1 2.6 2.2c.7 1.3.7 3.4.7 4.8.1 1.3 0 3.4-.7 4.7zm-4.4-9.4c-.8-.6-1.7-.8-4.1-.8h-6.1v10.8h6.1c2.4 0 3.3-.2 4.1-.8 1.4-1 1.6-2.4 1.6-4.6s-.2-3.6-1.6-4.6zm-.1 9c-.8.6-1.6.8-4 .8h-5.9V90.3h5.9c2.3 0 3.2.2 4 .8 1.3 1 1.5 2.3 1.5 4.5 0 2-.2 3.4-1.5 4.3zM98 96.7c-.5.5-.7 1.1-.7 1.9s.2 1.4.7 1.9c.8.8 1.9.9 2.9.9h7.9v-5.5h-7.9c-.9-.1-2.1 0-2.9.8zm10.6 4.4h-7.7c-.9 0-2-.1-2.7-.8-.4-.4-.6-1-.6-1.7s.2-1.3.6-1.7c.7-.7 1.8-.8 2.7-.8h7.7v5z"/>
    </g>
</svg>
